<?xml version="1.0" encoding="utf-8"?>
<!-- Generator: Adobe Illustrator 23.1.0, SVG Export Plug-In . SVG Version: 6.00 Build 0)  -->
<svg version="1.1" id="Layer_1" xmlns="http://www.w3.org/2000/svg" xmlns:xlink="http://www.w3.org/1999/xlink" x="0px" y="0px"
	 viewBox="0 0 24 24" style="enable-background:new 0 0 24 24;" xml:space="preserve">
<style type="text/css">
	.st0{fill:#FFFFFF;}
</style>
<g>
	<path class="st0" d="M17.5,13.9c-1-1-2.3-1.7-3.7-2.1l-0.9,0.9l0.4,4.8c0,0.2,0,0.3-0.1,0.5l-0.9,1.3c-0.1,0.1-0.2,0.1-0.3,0.1
		s-0.2,0-0.3-0.1L10.8,18c-0.1-0.1-0.1-0.3-0.1-0.5l0.4-4.8l-0.9-0.9c-1.4,0.3-2.7,1-3.7,2.1c-1.5,1.5-2.3,3.4-2.3,5.5
		c0,0.3,0.2,0.5,0.5,0.5h14.5c0.3,0,0.5-0.2,0.5-0.5C19.8,17.3,19,15.4,17.5,13.9z"/>
</g>
<g>
	<circle class="st0" cx="12" cy="7.5" r="3.5"/>
</g>
</svg>
