<?xml version="1.0" encoding="utf-8"?>
<!-- Generator: Adobe Illustrator 23.1.0, SVG Export Plug-In . SVG Version: 6.00 Build 0)  -->
<svg version="1.1" id="Layer_1" xmlns="http://www.w3.org/2000/svg" xmlns:xlink="http://www.w3.org/1999/xlink" x="0px" y="0px"
	 viewBox="0 0 24 24" style="enable-background:new 0 0 24 24;" xml:space="preserve">
<style type="text/css">
	.st0{fill:#FFFFFF;}
</style>
<g>
	<path class="st0" d="M11.9,12.2c-0.4,0-0.8-0.1-1.2-0.3c-2.1-0.7-4.3-1.4-6.4-2.1C4.3,9.7,4.2,9.7,4.1,9.6C4,9.5,4,9.3,4.1,9.2
		C4.2,9.2,4.3,9.1,4.4,9C6.7,8.4,9,7.7,11.2,7c0.5-0.2,1-0.2,1.6,0c2.2,0.7,4.5,1.3,6.7,2c0.1,0.1,0.3,0.1,0.4,0.2
		c0.2,0.1,0.2,0.3,0,0.4c-0.1,0.1-0.2,0.1-0.3,0.2c-2.2,0.7-4.5,1.5-6.8,2.2C12.5,12.1,12.3,12.2,11.9,12.2z"/>
	<path class="st0" d="M7.5,12.3c-0.3-0.1-0.4,0.1-0.4,0.3c0,0.9,0,1.7,0,2.5c0,0.3,0.1,0.5,0.3,0.7c0.1,0.1,0.2,0.1,0.2,0.2
		c0.5,0.4,1.2,0.6,1.8,0.8c1.3,0.3,2.5,0.4,3.9,0.2c0.8-0.1,1.7-0.3,2.4-0.7c0.3-0.2,0.7-0.3,0.9-0.6c0.2-0.2,0.2-0.3,0.2-0.6
		c0-0.8,0-1.6,0-2.5c0-0.5-0.3-0.4-0.5-0.4c-1.2,0.4-2.4,0.8-3.6,1.2c-0.6,0.2-1.2,0.2-1.7,0L7.5,12.3z"/>
	<path class="st0" d="M18.7,11.5c-0.1,0-0.1,0.1-0.1,0.2c0,0.8,0,1.5,0,2.3c0,0.1,0,0.2-0.1,0.2c-0.2,0.4-0.3,0.8-0.5,1.2
		c-0.1,0.4,0,0.8,0.2,1.1c0.1,0.1,0.2,0.2,0.3,0.3c0.1,0.1,0.3,0.2,0.5,0.2c0.2,0,0.4-0.1,0.6-0.2c0.1-0.1,0.2-0.1,0.2-0.2
		c0.2-0.3,0.2-0.6,0.2-0.9c-0.1-0.5-0.3-0.9-0.5-1.3c-0.1-0.1-0.1-0.2-0.1-0.3c0-0.8,0-1.6,0-2.5c0-0.2-0.1-0.1-0.2-0.1L18.7,11.5z"
		/>
</g>
</svg>
