<?xml version="1.0" encoding="utf-8"?>
<!-- Generator: Adobe Illustrator 23.1.0, SVG Export Plug-In . SVG Version: 6.00 Build 0)  -->
<svg version="1.1" id="Layer_1" xmlns="http://www.w3.org/2000/svg" xmlns:xlink="http://www.w3.org/1999/xlink" x="0px" y="0px"
	 viewBox="0 0 24 24" style="enable-background:new 0 0 24 24;" xml:space="preserve">
<style type="text/css">
	.st0{fill:#FFFFFF;}
</style>
<g id="XMLID_510_">
	<path id="XMLID_511_" class="st0" d="M18.9,19.9h1v-3.8c-0.3,0.6-0.6,1.1-1,1.6V19.9z"/>
	<path id="XMLID_512_" class="st0" d="M12,4c-4.4,0-8,3.6-8,8s3.6,8,8,8s8-3.6,8-8S16.4,4,12,4z M12,5.4c1.1,0,1.9,0.9,1.9,1.9
		S13,9.2,12,9.2s-1.9-0.9-1.9-1.9S10.9,5.4,12,5.4z M5.6,10.5c0-1.1,0.9-1.9,1.9-1.9c1.1,0,1.9,0.9,1.9,1.9c0,1.1-0.9,1.9-1.9,1.9
		S5.6,11.6,5.6,10.5z M9.2,17.7c-1.1,0-1.9-0.9-1.9-1.9s0.9-1.9,1.9-1.9c1.1,0,1.9,0.9,1.9,1.9S10.3,17.7,9.2,17.7z M12,12.7
		c-0.4,0-0.7-0.3-0.7-0.7s0.3-0.7,0.7-0.7s0.7,0.3,0.7,0.7S12.4,12.7,12,12.7z M14.7,17.7c-1.1,0-1.9-0.9-1.9-1.9s0.9-1.9,1.9-1.9
		c1.1,0,1.9,0.9,1.9,1.9S15.8,17.7,14.7,17.7z M16.4,12.4c-1.1,0-1.9-0.9-1.9-1.9c0-1.1,0.9-1.9,1.9-1.9c1.1,0,1.9,0.9,1.9,1.9
		C18.3,11.6,17.5,12.4,16.4,12.4z"/>
</g>
</svg>
