<svg xmlns="http://www.w3.org/2000/svg" viewBox="0 0 21.81 22"><defs><style>.a{fill:#fff;}</style></defs><title>lightswitch-w24x24</title><path class="a" d="M21.37,13.72A7.92,7.92,0,0,1,13.46,5.8a7.84,7.84,0,0,1,.45-2.62,7.91,7.91,0,1,0,9,10.39A8.44,8.44,0,0,1,21.37,13.72Z" transform="translate(-1.09 -1)"/><path class="a" d="M4.42,21.15A.56.56,0,0,1,4,21a.53.53,0,0,1,.08-.73l3.59-2.9a.52.52,0,0,1,.73.08.51.51,0,0,1-.08.72L4.74,21A.49.49,0,0,1,4.42,21.15Z" transform="translate(-1.09 -1)"/><path class="a" d="M8.65,4.3a.51.51,0,0,1-.37-.15L6,1.88a.5.5,0,0,1,0-.73.52.52,0,0,1,.73,0L9,3.42a.52.52,0,0,1,0,.73A.51.51,0,0,1,8.65,4.3Z" transform="translate(-1.09 -1)"/><path class="a" d="M6.23,12H1.61a.52.52,0,1,1,0-1H6.23a.52.52,0,0,1,0,1Z" transform="translate(-1.09 -1)"/><path class="a" d="M13.29,23h-.07a.5.5,0,0,1-.44-.57l.3-2.26a.52.52,0,1,1,1,.13l-.3,2.26A.53.53,0,0,1,13.29,23Z" transform="translate(-1.09 -1)"/></svg>