<?xml version="1.0" standalone="no"?>
<!DOCTYPE svg PUBLIC "-//W3C//DTD SVG 20010904//EN"
 "http://www.w3.org/TR/2001/REC-SVG-20010904/DTD/svg10.dtd">
<svg version="1.0" xmlns="http://www.w3.org/2000/svg"
 width="700.000000pt" height="700.000000pt" viewBox="0 0 700.000000 700.000000"
 preserveAspectRatio="xMidYMid meet">
<metadata>
Created by potrace 1.14, written by Peter Selinger 2001-2017
</metadata>
<g transform="translate(0.000000,700.000000) scale(0.100000,-0.100000)"
fill="#000000" stroke="none">
<path d="M3279 6996 c-2 -2 -45 -6 -95 -10 -51 -3 -105 -8 -120 -11 -16 -2
-75 -12 -131 -21 -56 -8 -108 -17 -115 -18 -7 -2 -31 -6 -53 -11 -252 -49
-552 -153 -830 -290 -603 -296 -1119 -772 -1462 -1350 -177 -297 -334 -681
-398 -973 -35 -160 -44 -204 -50 -242 -3 -25 -9 -63 -13 -85 -9 -55 -9 -939 0
-995 67 -401 166 -722 320 -1034 67 -136 177 -329 190 -334 4 -2 8 -8 8 -14 0
-13 92 -146 179 -258 434 -562 1020 -974 1695 -1195 103 -33 236 -71 286 -80
3 -1 19 -4 35 -8 48 -12 63 -14 200 -38 33 -6 71 -13 85 -17 14 -3 916 -8
2005 -9 l1980 -3 -1 1832 c0 1008 -4 1869 -8 1913 -7 89 -14 155 -21 200 -2
17 -7 53 -11 80 -3 28 -10 69 -15 93 -5 23 -12 59 -15 80 -3 20 -21 98 -41
172 -257 998 -943 1835 -1870 2280 -70 34 -137 66 -148 70 -11 4 -36 15 -55
23 -92 40 -352 126 -460 152 -35 8 -107 24 -130 29 -139 27 -251 45 -387 61
-48 6 -549 16 -554 11z m426 -1410 c33 -4 74 -9 90 -12 40 -6 147 -26 160 -29
38 -8 79 -20 140 -38 39 -11 72 -21 75 -22 27 -5 178 -70 270 -116 497 -250
876 -695 1052 -1234 23 -73 65 -243 74 -305 3 -25 9 -56 12 -70 3 -14 7 -553
9 -1198 l4 -1172 -558 2 -558 3 0 1120 c-1 877 -4 1133 -14 1180 -66 305 -228
532 -490 685 -73 42 -215 95 -283 105 -23 4 -61 10 -83 14 -95 17 -262 3 -390
-34 -165 -48 -296 -126 -420 -250 -199 -198 -297 -444 -289 -720 3 -120 6
-137 34 -241 85 -314 347 -583 661 -679 155 -47 379 -53 519 -15 19 6 40 10
46 10 7 0 10 -181 10 -580 l0 -579 -56 -7 c-73 -10 -357 -11 -445 -1 -549 60
-1033 315 -1388 732 -91 107 -81 94 -154 203 -160 241 -287 574 -323 847 -6
44 -13 96 -16 115 -7 45 -6 319 1 385 7 70 14 126 20 155 28 142 43 204 81
319 214 653 747 1164 1415 1356 63 18 135 36 160 40 24 3 51 8 60 11 23 6 70
13 154 20 39 4 71 7 72 8 6 5 295 -2 348 -8z"/>
</g>
</svg>
