<?xml version="1.0" encoding="utf-8"?>
<!-- Generator: Adobe Illustrator 23.1.0, SVG Export Plug-In . SVG Version: 6.00 Build 0)  -->
<svg version="1.1" id="Layer_1" xmlns="http://www.w3.org/2000/svg" xmlns:xlink="http://www.w3.org/1999/xlink" x="0px" y="0px"
	 viewBox="0 0 256 256" style="enable-background:new 0 0 256 256;" xml:space="preserve">
<style type="text/css">
	.st0{fill:#FFFFFF;}
</style>
<path class="st0" d="M127.6,0L127.6,0C56.7,0-0.8,57.5-0.8,128.3v0c0,70.9,57.5,128.3,128.3,128.3h128.3V128.3
	C255.9,57.5,198.5,0,127.6,0z M163.7,127.3c0-19.9-16.2-36.1-36.1-36.1s-36.1,16.2-36.1,36.1c0,19.9,16.2,36.1,36.1,36.1
	c3.7,0,7.2-0.6,10.5-1.6v42.6c-3.4,0.5-6.9,0.7-10.5,0.7c-42.5,0-76.9-34.4-76.9-76.9s34.4-76.9,76.9-76.9
	c42.5,0,76.9,34.4,76.9,76.9c0,0.1,0,0.1,0,0.2v76.7h-40.8v-9v-68L163.7,127.3z"/>
</svg>
